/* XPM */
static char *_f8b7d09c2f7447ce8f5c9a69034cf62vlv57SnZVD3pj9iJ[] = {
/* columns rows colors chars-per-pixel */
"50 50 139 2 ",
"   c None",
".  c #CBA72B",
"X  c #CAA72C",
"o  c #CBA72C",
"O  c #CAA82A",
"+  c #CCA82C",
"@  c #CCA92D",
"#  c #CDA92E",
"$  c #CDAB2E",
"%  c #CEAA2E",
"&  c #CEAB2E",
"*  c #CEAC32",
"=  c #D4B335",
"-  c #D6B437",
";  c #D7B437",
":  c #D7B638",
">  c #D8B639",
",  c #DCBB3E",
"<  c #DDBD3F",
"1  c #EEC71A",
"2  c #EFC81A",
"3  c #EFC81B",
"4  c #F1C91C",
"5  c #F2CB1D",
"6  c #F3CB1D",
"7  c #F6CD1F",
"8  c #EFCA22",
"9  c #EFCB22",
"0  c #F7CF20",
"q  c #F3CD25",
"w  c #F4CE27",
"e  c #F1CD2B",
"r  c #F3CE2A",
"t  c #F4CF29",
"y  c #F2CE2C",
"u  c #F9D021",
"i  c #F9D022",
"p  c #FAD122",
"a  c #FAD225",
"s  c #FAD226",
"d  c #F4D02E",
"f  c #F5D12F",
"g  c #FAD228",
"h  c #FAD328",
"j  c #FAD329",
"k  c #FAD32A",
"l  c #FAD32B",
"z  c #FAD32E",
"x  c #FBD32F",
"c  c #F2D031",
"v  c #F2D133",
"b  c #F2D134",
"n  c #FAD531",
"m  c #FBD534",
"M  c #FAD636",
"N  c #FAD739",
"B  c #DDBE41",
"V  c #E1C243",
"C  c #ECCC44",
"Z  c #EACB4C",
"A  c #EACD4D",
"S  c #EBCE4E",
"D  c #EFD046",
"F  c #F2D243",
"G  c #F5D540",
"H  c #F5D545",
"J  c #F6D847",
"K  c #FADA43",
"L  c #FADA47",
"P  c #FADB47",
"I  c #F7D949",
"U  c #F8D949",
"Y  c #FADB49",
"T  c #FADC4A",
"R  c #FADC4B",
"E  c #F8DB4E",
"W  c #F9DB4E",
"Q  c #EACC51",
"!  c #EACE51",
"~  c #EFD352",
"^  c #F6D856",
"/  c #FBDD50",
"(  c #F9DC52",
")  c #F8DD54",
"_  c #FBDD56",
"`  c #FADE57",
"'  c #F5D958",
"]  c #F5DA59",
"[  c #F7DB58",
"{  c #F7DB5B",
"}  c #F7DC5A",
"|  c #F7DC5B",
" . c #F9DE58",
".. c #FADF58",
"X. c #FADF59",
"o. c #F9DE5D",
"O. c #FADF5D",
"+. c #FADF5F",
"@. c #FAE05B",
"#. c #FAE05C",
"$. c #FAE05D",
"%. c #FBE05D",
"&. c #FAE05E",
"*. c #FBE15F",
"=. c #FCE15F",
"-. c #EBCE62",
";. c #F8DE67",
":. c #F6DA6B",
">. c #EBD27E",
",. c #FBE160",
"<. c #FBE263",
"1. c #FBE266",
"2. c #FCE267",
"3. c #FBE269",
"4. c #FAE26B",
"5. c #FCE269",
"6. c #FBE36C",
"7. c #FCE472",
"8. c #FCE178",
"9. c #FCE27F",
"0. c #FCE57C",
"q. c #FCE47E",
"w. c #FCE280",
"e. c #FCE580",
"r. c #FCE686",
"t. c #FCE588",
"y. c #FCE78A",
"u. c #FBE593",
"i. c #FAE696",
"p. c #FDE9A1",
"a. c #FCEAA6",
"s. c #FCEAA8",
"d. c #FBEAAE",
"f. c #FCE9AD",
"g. c #FCEAAD",
"h. c #FDEBAD",
"j. c #FCEAAE",
"k. c #FDEBAE",
"l. c #FDEBAF",
/* pixels */
"                                                                                                    ",
"                            O.O.q.k.k.k.k.k.k.k.k.O.O.4.k.k.t.O.O.B X X                             ",
"                            *.*.q.k.k.k.k.k.k.k.k.<.*.6.k.k.t.*.*.< + +                             ",
"                            *.*.q.k.k.k.k.k.k.k.k.<.*.6.k.k.t.*.*.< + +                             ",
"                d.k.k.2.=.X.9 9 r m m m m m m m m g g g m m x g g I [ [ =.=.[ + + O                 ",
"                k.k.k.1.*.X.1 1 4 u u u u u u u u u u u u u u u u U *.*.*.*.| + + +                 ",
"                a.s.s.<.*.` 2 2 4 u u u u u u u u u u u u u u u u L *.*.*.*.[ + + +                 ",
"            *.*.c 1 1 u u u u u u u u u u u u u u u u u u u u u u u u u u u h ,.*.Z + +             ",
"            *.*.b 1 1 u u u u u u u u u u u u u u u u u u u u u u u u u u u h ,.*.Z + +             ",
"          ;.E E y 4 4 u u u u u u u u u u u u u u u u u u u u u u u u u u u h / ( C : : ;           ",
"      k.k.:.1 1 7 u u u u u u u u u u u u u u u u u u u u u u u u u u u u u u u u N *.*.V + +       ",
"      k.k.:.1 1 7 u u u u u u u u u u u u u u u u u u u u u u u u u u u u u u u u N *.*.V + +       ",
"      r.r.^ 1 1 7 u u u u u u u u u u u u u u u u u u u u u u u u u u u u u u u u N *.*.V + +       ",
"      *.*.G 1 1 7 u u u u u u u u u u u u u u u u u u u u u u u u u u u u u u u u N *.*.V + +       ",
"      *.*.G 1 1 7 u u u u u u u u u u u u u u u u u u u u u u u u u u u u u u u u N *.*.V + +       ",
"k.k.u.c c t 7 7 u u u u u g w.w.w.w.w.w.w.w.` R R 9.w.8.R R R R R d 4 4 u u u u u g m m F A A = . . ",
"k.k.i.1 1 4 u u u u u u u x k.k.l.k.k.k.k.k.7.*.*.k.k.p.*.*.*.*.*.c 1 1 u u u u u u u u K *.*.> + + ",
"k.k.i.1 2 7 u u u u u u u x k.k.k.k.k.k.k.k.7.*.*.k.k.p.*.*.*.*.*.c 1 1 u u u u u u u u K *.*.> + + ",
"k.k.i.1 1 4 u u u u u u u g <.<.! * *                         *.*.c 1 1 u u u u u u u u K *.*.> + + ",
"k.k.i.1 1 4 u u u u u u u g *.*.Z + +                         *.*.c 1 1 u u u u u u u u K *.*.> + + ",
"k.k.i.1 1 4 u u u u u u u g 4.4.! + +                         *.*.c 1 1 u u u u u u u u L ,.*.> + + ",
"k.k.i.1 1 4 u u u u u u u x k.k.>.+ +                         *.*.c 1 1 u u u u u u u u K =.*.> + + ",
"k.k.i.1 2 4 u u u u u u u x k.k.>.+ +                         *.*.c 1 1 u u u u u u u u K *.*.> + + ",
"k.k.i.1 2 7 u u u u u u u x k.k.>.+ +                         *.*.c 1 1 u u u u u u u u K *.*.> + + ",
"k.k.i.1 1 4 u u u u u u u x k.k.>.+ +                         *.*.c 1 1 u u u u u u u u K *.*.> + + ",
"k.k.i.1 1 4 u u u u u u u x k.k.>.+ +                         *.*.c 1 1 u u u u u u u u K *.*.> + + ",
"k.k.i.1 1 4 u u u u u u u h e.e.-.+ +                         *.*.c 1 1 u u u u u u u u K *.*.> + + ",
"k.k.i.1 1 4 u u u u u u u h *.*.Z + +                         *.*.c 1 1 u u u u u u u u K *.*.> + + ",
"k.k.i.1 1 4 u u u u u u u g *.*.Z + +                         *.*.c 1 1 u u u u u u u u K *.*.> + + ",
"5.5.O.1 1 4 u u u u u u u g *.*.Z + +                         *.*.c 1 1 u u u u u u u u K *.*.> + + ",
"*.*.` 2 1 4 u u u u u u u g *.*.Z + +                         *.*.c 1 1 u u u u u u u u K *.*.> + + ",
"*.*.` 1 1 4 u u u u u u u g *.*.A + +                         *.*.c 1 1 u u u u u u u u K *.*.> + + ",
"*.*.` 1 1 4 u u u u u u u g *.*.*.*.*.*.*.*.*.*.*.*.=.*.*.*.*.*.*.c 1 1 u u u u u u u u K *.*.> + + ",
"*.*.` 1 1 4 u u u u u u u g *.*.*.,.*.*.*.*.*.*.*.*.*.*.*.=.*.*.*.b 1 1 u u u u u u u u K *.*.> + + ",
"*.*.( r r w 0 0 u u u u u g ( ( / / / / ( ( ( ( ( ( ( ( / / / / ( d 4 4 u u u u u s n n H ~ ~ ; X X ",
"      *.*.G 1 1 7 u u u u u u u u u u u u u u u u u u u u u u u u u u u u u u u u N *.*.V + +       ",
"      *.*.G 1 1 7 u u u u u u u u u u u u u u u u u u u u u u u u u u u u u u u u N *.*.V + +       ",
"      *.*.G 1 1 7 u u u u u u u u u u u u u u u u u u u u u u u u u u u u u u u u N *.*.V + +       ",
"      *.*.G 1 1 7 u u u u u u u u u u u u u u u u u u u u u u u u u u u u u u u u N *.*.V + +       ",
"      *.*.G 1 1 7 u u u u u u u u u u u u u u u u u u u u u u u u u u u u u u u u N *.*.V + +       ",
"          E J J d 4 4 u u u u u u u u u u u u u u u u u u u u u u u u u u u s R R D , , ;           ",
"            *.*.b 1 1 u u u u u u u u u u u u u u u u u u u u u u u u u u u g *.*.Z + +             ",
"            *.*.b 1 1 u u u u u u u u u u u u u u u u u u u u u u u u u u u g *.*.Z + +             ",
"                *.@.@.*.*.` 2 2 4 u u u u u u u u u u u u u u u u L *.*.*.*.[ + + +                 ",
"                O.*.*.*.*.X.1 1 4 u u u u u u u u u u u u u u u u U *.*.*.*.| + + +                 ",
"                <.*.*.*.*.X.9 9 q g g g g g g g h h g h g g g g g U [ [ *.*.| + + X                 ",
"                            *.*.*.*.*.*.*.*.*.*.*.*.<.<.*.*.*.*.*.< + +                             ",
"                            *.*.*.*.*.*.*.*.*.*.*.*.*.*.*.*.*.*.*.< + +                             ",
"                            *.*.*.*.*.*.*.*.*.*.*.*.*.*.*.*.*.*.*.B + +                             ",
"                                                                                                    "
};
