/* XPM */
static char *_88108e5938d4e5d884b748b7b7bd513GLxi7oSJI7p8qB5q[] = {
/* columns rows colors chars-per-pixel */
"38 50 101 2 ",
"   c None",
".  c black",
"X  c #070707",
"o  c #090401",
"O  c gray4",
"+  c #0B0B0B",
"@  c gray5",
"#  c gray6",
"$  c #110802",
"%  c #110902",
"&  c #190D03",
"*  c #1E150F",
"=  c #131313",
"-  c gray8",
";  c #151515",
":  c gray9",
">  c gray10",
",  c #231105",
"<  c #2B1506",
"1  c #341907",
"2  c #341A07",
"3  c #351D0A",
"4  c #3D1E08",
"5  c #251C13",
"6  c #37200D",
"7  c #382310",
"8  c #3A2513",
"9  c #3A2613",
"0  c #3B2816",
"q  c #3B2916",
"w  c #3D2B19",
"e  c #3F291A",
"r  c #202020",
"t  c gray13",
"y  c #232323",
"u  c #272727",
"i  c gray16",
"p  c #2D2D2D",
"a  c gray18",
"s  c #322920",
"d  c gray19",
"f  c #343434",
"g  c #393939",
"h  c gray23",
"j  c #3F3F3F",
"k  c #452209",
"l  c #4E260A",
"z  c #4E270A",
"x  c #48280F",
"c  c #562B0B",
"v  c #582D0E",
"b  c #5F2F0D",
"n  c #4A2B12",
"m  c #4B2E15",
"M  c #452F1A",
"N  c #542D11",
"B  c #5E391A",
"V  c #68330E",
"C  c #68340E",
"Z  c #71380F",
"A  c #6B3914",
"S  c #6B3A14",
"D  c #6D3C17",
"F  c #713810",
"G  c #793C10",
"H  c #7A3C11",
"J  c #7A3D11",
"K  c #613E20",
"L  c #7D4217",
"P  c #7F471C",
"I  c #654729",
"U  c #744A26",
"Y  c #754E29",
"T  c #7A5632",
"R  c #414141",
"E  c #484848",
"W  c #4E4E4E",
"Q  c gray31",
"!  c #504C49",
"~  c #505050",
"^  c #565656",
"/  c gray36",
"(  c #626262",
")  c DimGray",
"_  c #7E7E7E",
"`  c #824112",
"'  c #834112",
"]  c SaddleBrown",
"[  c #8E4B19",
"{  c #91501F",
"}  c #91511F",
"|  c #814B20",
" . c #845126",
".. c #87572C",
"X. c #89592F",
"o. c #945625",
"O. c #975C2B",
"+. c #8C5F35",
"@. c #9A6231",
"#. c #9D6837",
"$. c #A06D3D",
/* pixels */
"                                                                            ",
"                                                                            ",
"                              y X u u > = ;                                 ",
"                        . > u ( a E / f E R u X                             ",
"                    ; f f f / ) ) f f E ) ) E f f d                         ",
"                  O E ) ) W u u u y X u u u f / ) ( d                       ",
"                . @ ) ) ) h X I A V D U V < ; ^ ) ( u h .                   ",
"              . / W u E @ N H $.[ ] { @.] ` ..5 @ > / ( j                   ",
"              @ ) ) ! M O.] ] $.[ ] { @.] ] @.{ ] * ( ) R .                 ",
"            . / ) / , o.O.] ] $.[ ] { @.] ] @.{ ] H > ( R X                 ",
"            . E ) R 4 o.O.] ] $.[ ] { @.] ] @.{ ] H s f h f                 ",
"            i u h % ] o.O.] ] $.[ ] { @.] ] @.{ ] [ T u ) E ;               ",
"          . W ) o z ] o.O.] ] $.[ ] { @.] ] @.{ ] [ +.e E ) u               ",
"          . W ) % ] ] o.O.] ] $.[ ] { @.] ] @.{ ] [ #.c u ) u               ",
"          . W ) % ] ] o.O.] ] $.[ ] { @.] ] @.{ ] [ #.c u ) u               ",
"          . X @ % ] ] o.O.] ] $.[ ] { @.] ] @.{ ] [ #.c X @ X               ",
"          . E / % ] ] o.O.] ] $.[ ] { @.] ] @.{ ] [ #.c y / y               ",
"          . W ) % ] ] o.O.] ] $.[ ] { @.] ] @.{ ] [ #.c u ) u               ",
"          . W ) % ] ] o.O.] ] $.[ ] { @.] ] @.{ Z A Y 4 u ) u               ",
"          . a R % ] ] o.O.] ] $.[ ] { @.] ] @.{ % h ; a > R >               ",
"          . u f % ] ] o.O.] ] $.[ ] { @.] ] @.{ % ~ ; h = f =               ",
"          . W ) % ] ] o.O.] ] $.[ ] { @.] ] @.{ b v K 1 u ) u               ",
"          . W ) % ] ] o.O.] ] $.[ ] { @.] ] @.{ ] [ #.c u ) u               ",
"          . W ) % ] ] o.O.] ] $.[ ] { @.] ] @.{ ] [ #.c u ) u               ",
"          . X @ % ] ] o.O.] ] $.[ ] { @.] ] @.{ ] [ #.c X @ X               ",
"          . W ) % ] ` |  .H ] $.[ ] { @.] ] @.{ ] [ #.c u ) u               ",
"          . W ) % ] F & . % Z $.[ ] { @.] ] @.{ ] [ #.c u ) u               ",
"          . W ) % ] H x 7 k ` $.[ ] { @.] ] @.{ ] [ #.c u ) u               ",
"          . a R % ] C e O.1 V $.[ ] { @.] ] @.{ ] [ #.c > R >               ",
"          . u f % ] H n m k H $.[ ] { @.] ] @.{ ] [ #.c = f =               ",
"          . W ) % ] ] P B H ] $.[ ] { @.] ] @.{ ] [ #.c u ) u               ",
"          . W ) % ] ] o.O.] ] $.[ ] { @.] ] @.{ ] [ #.c u ) u               ",
"          . W ) % ] ] o.O.] ] $.[ ] { @.] ] @.{ ] [ #.c u ) u               ",
"          . @ @ % ] ] o.O.] ] $.[ ] { @.] ] @.{ ] [ #.c X @ X               ",
"          . W ) % ] ] o.O.] ] $.[ ] { @.] ] @.{ ] [ #.c u ) u               ",
"          . W ) % ] ] o.O.] ] $.[ ] { @.] ] @.{ ] [ #.c u ) u               ",
"          . W ) % ] ] o.O.] ] $.[ ] { @.] ] @.{ ] [ #.c u ) u               ",
"          . u f % ] ] o.O.] ] $.[ ] { @.] ] @.{ ] [ #.c = f =               ",
"          . f R % ] ] o.O.] ] $.[ ] { @.] ] @.{ 4 3 q , > R >               ",
"          . W ) % ] ] o.O.] ] $.[ ] { @.] ] @.{ % _ y / u ) u               ",
"          . W ) % ] ] o.O.] ] $.[ ] { @.] ] @.{ % ; . O u ) u               ",
"          . W ) % ] ] o.O.] ] $.[ ] { @.] ] @.{ H L X.z u ) u               ",
"          . @ @ % ] ] o.O.] ] $.[ ] { @.] ] @.{ ] [ #.c X @ X               ",
"          . W ) % ] ] o.O.] ] $.[ ] { @.] ] @.{ ] [ #.c u ) u               ",
"          . W ) % ] ] o.O.] ] $.[ ] { @.] ] @.{ ] [ #.c u ) u               ",
"          . W ) % ] ] o.O.] ] $.[ ] { @.] ] @.{ ] [ #.c u ) u               ",
"          . > u o 1 1 6 7 1 1 q 3 1 3 9 1 1 9 6 1 3 q , @ u @               ",
"                                                                            ",
"                                                                            ",
"                                                                            "
};
