/* XPM */
static char *ac8f0e0e38ee4b2be5b513f1073dde59K7t35dSExlHuxFs8[] = {
/* columns rows colors chars-per-pixel */
"50 50 144 2 ",
"   c None",
".  c #272727",
"X  c #272729",
"o  c #282828",
"O  c #282829",
"+  c gray16",
"@  c #2A2A2A",
"#  c #2B2B2E",
"$  c #2B2B2F",
"%  c gray18",
"&  c #272737",
"*  c #282830",
"=  c #2C2C30",
"-  c #2D2D32",
";  c #2D2E33",
":  c #2E2E33",
">  c #2E2F34",
",  c #2E2F35",
"<  c #2F2F35",
"1  c gray21",
"2  c #373737",
"3  c #303038",
"4  c #303138",
"5  c #31333D",
"6  c #32333D",
"7  c #32343D",
"8  c gray24",
"9  c #463E27",
"0  c #423A28",
"q  c #4A3F28",
"w  c #493F33",
"e  c #4A4027",
"r  c #594A30",
"t  c #6A5626",
"y  c #765F25",
"u  c #665534",
"i  c #655A3B",
"p  c #74653B",
"a  c #323440",
"s  c #343642",
"d  c #343742",
"f  c #343744",
"g  c #353947",
"h  c #363847",
"j  c #363947",
"k  c #383A4C",
"l  c #383B4C",
"z  c #393B4D",
"x  c #383C4C",
"c  c #3A3C4F",
"v  c #3A3D51",
"b  c #3A3E51",
"n  c #3C3F54",
"m  c #413F44",
"M  c #3C4056",
"N  c #3C4156",
"B  c #3E435B",
"V  c gray25",
"C  c #414141",
"Z  c #494340",
"A  c #4D4845",
"S  c #4E4752",
"D  c #40455F",
"F  c #4B4C5C",
"G  c #5B565F",
"H  c #604F44",
"J  c #62544C",
"K  c #685F4D",
"L  c #7B6F5E",
"P  c #414560",
"I  c #414561",
"U  c #414661",
"Y  c #434965",
"T  c #434866",
"R  c #454B6B",
"E  c #5D5B6A",
"W  c #484E70",
"Q  c #4A5075",
"!  c #4C537A",
"~  c #606060",
"^  c #82662A",
"/  c #9A7725",
"(  c #A07D26",
")  c #927642",
"_  c #9A6E53",
"`  c #8E7567",
"'  c #9C7C60",
"]  c #94776D",
"[  c #94813B",
"{  c #AB8324",
"}  c #B08826",
"|  c #B5892C",
" . c #BB9332",
".. c #C0982C",
"X. c #CAA331",
"o. c #CBA431",
"O. c #D0A933",
"+. c #D5AE35",
"@. c #DAB236",
"#. c #DAB336",
"$. c #E5BE3B",
"%. c #E2BD3F",
"&. c #E5BE3C",
"*. c #EAC43D",
"=. c #C58645",
"-. c #C78F4E",
";. c #C5AA42",
":. c #D9B265",
">. c #D8AC78",
",. c #E1A079",
"<. c #F4CE41",
"1. c #F5CE42",
"2. c #F5CF42",
"3. c #F2CE45",
"4. c #FAD444",
"5. c #FFD946",
"6. c #2F5782",
"7. c #2B639C",
"8. c #2461A0",
"9. c #4B5A84",
"0. c #4A6184",
"q. c #516387",
"w. c #456891",
"e. c #4C6897",
"r. c #566693",
"t. c #54709B",
"y. c #6D7C8C",
"u. c #4E70A7",
"i. c #6CA9ED",
"p. c #6BAFF9",
"a. c #9B8683",
"s. c #849FBC",
"d. c #9B9EB2",
"f. c #96A1BB",
"g. c #ADABB3",
"h. c #ADADB4",
"j. c #AEACB4",
"k. c #AFADB4",
"l. c #AEADB5",
"z. c #E3A982",
"x. c #E5BB92",
"c. c #DCBCAC",
"v. c #F4CEB8",
"b. c #F7D0B6",
/* pixels */
"                                                                                                    ",
"                                                                                                    ",
"                                                                                                    ",
"                                                                                                    ",
"                                                                                                    ",
"                                                                                                    ",
"                                                                                                    ",
"                                                                                                    ",
"                                                                                                    ",
"                                                                                                    ",
"                                                                                                    ",
"                                                                                                    ",
"                                                                                                    ",
"                                                                                                    ",
"                                                                                                    ",
"                                                                                                    ",
"                                            X * o o                                                 ",
"                                          [ 3.5.2.+.( t           g.                                ",
"                                        ;.5.5.5.5.5.2.@.y                                           ",
"                                      i %.5.O.5.2.5.2.5./ 9     k.                                  ",
"                                      p o.$.$.4.O.4.O.4.{ q                                         ",
"                                      r } ..2.+.2.X.2.X.^ q   k.                                    ",
"                                        u ) *.+.@...&.=.w 0                                         ",
"                                        Z >. .| -.+.:.z.& o     g.                                  ",
"                                          H e ' b.x.v.]         g.g.                                ",
"                                          o 7.a.,._ y.s.E k.    k.                                  ",
"                                        ; b 9.p.d.w.i.u.o   g.g.                                    ",
"                                        D M 7 t.e.8.0.q.o                                           ",
"                                      o ; o o ; 4 A m # o                                           ",
"                                    ; k ; o o o ; K F 5 .                                           ",
"                                      I Q f o o W j L I o                                           ",
"                                        n r.f.G Q ! 5 W 5 o                                         ",
"                                          6.c.` I k M 4 c o                                         ",
"                                            J S I R I M b                                           ",
"                                            < ! Y o o j B                                           ",
"                                            < Y #   a ! j                                           ",
"                                          o Y b o   o k                                             ",
"                                          < s <     o o                                             ",
"                                          c b o   o o o                                             ",
"                                          b k o   o k b                                             ",
"                                        ; s 2 o     c 2 8 %                                         ",
"                                          V ~ V                                                     ",
"                                                                                                    ",
"                                                                                                    ",
"                                                                                                    ",
"                                                                                                    ",
"                                                                                                    ",
"                                                                                                    ",
"                                                                                                    ",
"                                                                                                    "
};
